999
Therion DXF export
0
SECTION
2
HEADER
9
$ACADVER
1
AC1006
9
$INSBASE
10
0.0
20
0.0
30
0.0
9
$EXTMIN
10
-1.780
20
-1.770
30
-38.340
9
$EXTMAX
10
4.170
20
67.070
30
0.000
0
ENDSEC
0
SECTION
2
TABLES
0
TABLE
2
LTYPE
70
1
0
LTYPE
2
CONTINUOUS
70
64
3
Solid line
72
65
73
0
40
0.000000
0
ENDTAB
0
TABLE
2
LAYER
70
6
0
LAYER
2
CENTERLINE
70
64
62
4
6
CONTINUOUS
0
LAYER
2
WALLS
70
64
62
7
6
CONTINUOUS
0
LAYER
2
SURFACE
70
64
62
3
6
CONTINUOUS
0
LAYER
2
SURFACE_CENTERLINE
70
64
62
8
6
CONTINUOUS
0
LAYER
2
BBOX
70
64
62
1
6
CONTINUOUS
0
ENDTAB
0
TABLE
2
STYLE
70
0
0
ENDTAB
0
ENDSEC
0
SECTION
2
BLOCKS
0
ENDSEC
0
SECTION
2
ENTITIES
0
LINE
8
CENTERLINE
10
0.000
20
0.000
30
0.000
11
0.000
21
0.610
31
-2.220
0
LINE
8
CENTERLINE
10
0.000
20
0.610
30
-2.220
11
0.360
21
0.250
31
-3.940
0
LINE
8
CENTERLINE
10
0.360
20
0.250
30
-3.940
11
0.580
21
-0.360
31
-5.940
0
LINE
8
CENTERLINE
10
0.580
20
-0.360
30
-5.940
11
-0.070
21
-0.760
31
-20.450
0
LINE
8
CENTERLINE
10
-0.070
20
-0.760
30
-20.450
11
-0.370
21
-0.270
31
-21.650
0
LINE
8
CENTERLINE
10
-0.370
20
-0.270
30
-21.650
11
-0.750
21
-0.830
31
-27.240
0
LINE
8
CENTERLINE
10
-0.750
20
-0.830
30
-27.240
11
-1.780
21
-1.660
31
-27.600
0
LINE
8
CENTERLINE
10
-1.780
20
-1.660
30
-27.600
11
-1.400
21
-1.400
31
-28.350
0
LINE
8
CENTERLINE
10
-1.400
20
-1.400
30
-28.350
11
-1.440
21
-1.770
31
-28.610
0
LINE
8
CENTERLINE
10
-1.440
20
-1.770
30
-28.610
11
-1.490
21
-0.870
31
-29.160
0
LINE
8
CENTERLINE
10
-1.490
20
-0.870
30
-29.160
11
-0.760
21
5.860
31
-29.700
0
LINE
8
CENTERLINE
10
-0.760
20
5.860
30
-29.700
11
-0.300
21
11.920
31
-30.110
0
LINE
8
CENTERLINE
10
-0.300
20
11.920
30
-30.110
11
-0.300
21
18.770
31
-30.480
0
LINE
8
CENTERLINE
10
-0.300
20
18.770
30
-30.480
11
0.580
21
20.980
31
-30.510
0
LINE
8
CENTERLINE
10
0.580
20
20.980
30
-30.510
11
0.500
21
25.190
31
-30.690
0
LINE
8
CENTERLINE
10
0.500
20
25.190
30
-30.690
11
1.530
21
27.790
31
-30.690
0
LINE
8
CENTERLINE
10
1.530
20
27.790
30
-30.690
11
1.120
21
29.430
31
-30.940
0
LINE
8
CENTERLINE
10
1.120
20
29.430
30
-30.940
11
1.420
21
30.670
31
-31.370
0
LINE
8
CENTERLINE
10
1.420
20
30.670
30
-31.370
11
2.680
21
34.600
31
-32.830
0
LINE
8
CENTERLINE
10
2.680
20
34.600
30
-32.830
11
3.430
21
35.140
31
-32.990
0
LINE
8
CENTERLINE
10
3.430
20
35.140
30
-32.990
11
3.670
21
39.510
31
-33.690
0
LINE
8
CENTERLINE
10
3.670
20
39.510
30
-33.690
11
3.170
21
46.720
31
-34.020
0
LINE
8
CENTERLINE
10
3.170
20
46.720
30
-34.020
11
3.630
21
52.290
31
-34.200
0
LINE
8
CENTERLINE
10
3.630
20
52.290
30
-34.200
11
4.170
21
56.880
31
-34.080
0
LINE
8
CENTERLINE
10
4.170
20
56.880
30
-34.080
11
3.400
21
66.510
31
-34.310
0
LINE
8
CENTERLINE
10
3.400
20
66.510
30
-34.310
11
3.850
21
66.910
31
-34.950
0
LINE
8
CENTERLINE
10
3.850
20
66.910
30
-34.950
11
3.760
21
67.070
31
-38.340
0
LINE
8
SPLAY_SHOTS
10
-1.490
20
-0.870
30
-29.160
11
-3.610
21
-10.840
31
-28.120
0
LINE
8
SPLAY_SHOTS
10
-0.760
20
5.860
30
-29.700
11
-1.040
21
5.930
31
-30.050
0
LINE
8
SPLAY_SHOTS
10
-0.760
20
5.860
30
-29.700
11
-1.300
21
5.970
31
-29.680
0
LINE
8
SPLAY_SHOTS
10
-0.760
20
5.860
30
-29.700
11
-0.980
21
5.980
31
-29.460
0
LINE
8
SPLAY_SHOTS
10
-1.440
20
-1.770
30
-28.610
11
-2.030
21
-0.890
31
-28.580
0
LINE
8
SPLAY_SHOTS
10
-1.440
20
-1.770
30
-28.610
11
-2.020
21
-0.950
31
-28.590
0
LINE
8
SPLAY_SHOTS
10
-0.750
20
-0.830
30
-27.240
11
-1.280
21
-1.940
31
-26.300
0
LINE
8
SPLAY_SHOTS
10
-0.750
20
-0.830
30
-27.240
11
-1.390
21
-0.030
31
-26.370
0
LINE
8
SPLAY_SHOTS
10
-0.750
20
-0.830
30
-27.240
11
-0.010
21
-0.550
31
-26.300
0
LINE
8
SPLAY_SHOTS
10
-0.370
20
-0.270
30
-21.650
11
-1.210
21
-1.580
31
-21.550
0
LINE
8
SPLAY_SHOTS
10
-0.370
20
-0.270
30
-21.650
11
-2.140
21
-0.890
31
-21.610
0
LINE
8
SPLAY_SHOTS
10
-0.370
20
-0.270
30
-21.650
11
-1.530
21
0.340
31
-21.870
0
LINE
8
SPLAY_SHOTS
10
-0.070
20
-0.760
30
-20.450
11
-1.330
21
0.320
31
-20.540
0
LINE
8
SPLAY_SHOTS
10
-0.070
20
-0.760
30
-20.450
11
-2.070
21
-0.630
31
-20.480
0
LINE
8
SPLAY_SHOTS
10
-0.070
20
-0.760
30
-20.450
11
-1.100
21
-1.620
31
-20.430
0
LINE
8
SPLAY_SHOTS
10
0.360
20
0.250
30
-3.940
11
-0.910
21
0.050
31
-4.090
0
LINE
8
SPLAY_SHOTS
10
0.360
20
0.250
30
-3.940
11
-1.060
21
-1.090
31
-3.900
0
LINE
8
SPLAY_SHOTS
10
0.360
20
0.250
30
-3.940
11
0.240
21
-1.610
31
-3.830
0
LINE
8
SPLAY_SHOTS
10
0.000
20
0.610
30
-2.220
11
-0.300
21
-0.780
31
-2.750
0
LINE
8
SPLAY_SHOTS
10
0.000
20
0.610
30
-2.220
11
0.460
21
0.930
31
-3.200
0
LINE
8
SPLAY_SHOTS
10
0.000
20
0.610
30
-2.220
11
-0.900
21
1.130
31
-2.930
0
LINE
8
SPLAY_SHOTS
10
0.000
20
0.000
30
0.000
11
0.250
21
-0.580
31
-0.060
0
LINE
8
SPLAY_SHOTS
10
0.000
20
0.000
30
0.000
11
-0.220
21
-0.700
31
-0.110
0
LINE
8
SPLAY_SHOTS
10
0.000
20
0.000
30
0.000
11
-0.540
21
-0.310
31
-0.130
0
LINE
8
SPLAY_SHOTS
10
0.000
20
0.000
30
0.000
11
-0.570
21
0.090
31
-0.670
0
LINE
8
SPLAY_SHOTS
10
0.000
20
0.000
30
0.000
11
-0.560
21
0.120
31
-0.670
0
LINE
8
BBOX
10
-3.610
20
-10.840
30
-38.340
11
4.170
21
-10.840
31
-38.340
0
LINE
8
BBOX
10
-3.610
20
-10.840
30
-38.340
11
-3.610
21
67.070
31
-38.340
0
LINE
8
BBOX
10
-3.610
20
-10.840
30
-38.340
11
-3.610
21
-10.840
31
0.000
0
LINE
8
BBOX
10
4.170
20
67.070
30
0.000
11
-3.610
21
67.070
31
0.000
0
LINE
8
BBOX
10
4.170
20
67.070
30
0.000
11
4.170
21
-10.840
31
0.000
0
LINE
8
BBOX
10
4.170
20
67.070
30
0.000
11
4.170
21
67.070
31
-38.340
0
LINE
8
BBOX
10
-3.610
20
-10.840
30
0.000
11
4.170
21
-10.840
31
0.000
0
LINE
8
BBOX
10
-3.610
20
-10.840
30
0.000
11
-3.610
21
67.070
31
0.000
0
LINE
8
BBOX
10
4.170
20
-10.840
30
-38.340
11
4.170
21
-10.840
31
0.000
0
LINE
8
BBOX
10
4.170
20
67.070
30
-38.340
11
-3.610
21
67.070
31
-38.340
0
LINE
8
BBOX
10
4.170
20
67.070
30
-38.340
11
4.170
21
-10.840
31
-38.340
0
LINE
8
BBOX
10
-3.610
20
67.070
30
0.000
11
-3.610
21
67.070
31
-38.340
0
ENDSEC
0
EOF
