999
Therion DXF export
0
SECTION
2
HEADER
9
$ACADVER
1
AC1006
9
$INSBASE
10
0.0
20
0.0
30
0.0
9
$EXTMIN
10
166007.160
20
-0.450
30
-20.580
9
$EXTMAX
10
166034.680
20
45.600
30
0.000
0
ENDSEC
0
SECTION
2
TABLES
0
TABLE
2
LTYPE
70
1
0
LTYPE
2
CONTINUOUS
70
64
3
Solid line
72
65
73
0
40
0.000000
0
ENDTAB
0
TABLE
2
LAYER
70
6
0
LAYER
2
CENTERLINE
70
64
62
4
6
CONTINUOUS
0
LAYER
2
WALLS
70
64
62
7
6
CONTINUOUS
0
LAYER
2
SURFACE
70
64
62
3
6
CONTINUOUS
0
LAYER
2
SURFACE_CENTERLINE
70
64
62
8
6
CONTINUOUS
0
LAYER
2
BBOX
70
64
62
1
6
CONTINUOUS
0
ENDTAB
0
TABLE
2
STYLE
70
0
0
ENDTAB
0
ENDSEC
0
SECTION
2
BLOCKS
0
ENDSEC
0
SECTION
2
ENTITIES
0
LINE
8
CENTERLINE
10
166021.440
20
0.000
30
0.000
11
166020.760
21
0.410
31
-0.790
0
LINE
8
CENTERLINE
10
166020.760
20
0.410
30
-0.790
11
166021.580
21
0.030
31
-2.230
0
LINE
8
CENTERLINE
10
166021.580
20
0.030
30
-2.230
11
166021.450
21
0.310
31
-7.030
0
LINE
8
CENTERLINE
10
166021.450
20
0.310
30
-7.030
11
166020.750
21
0.540
31
-5.660
0
LINE
8
CENTERLINE
10
166020.750
20
0.540
30
-5.660
11
166019.840
21
1.040
31
-5.600
0
LINE
8
CENTERLINE
10
166019.840
20
1.040
30
-5.600
11
166017.580
21
3.190
31
-5.560
0
LINE
8
CENTERLINE
10
166017.580
20
3.190
30
-5.560
11
166015.970
21
5.480
31
-5.580
0
LINE
8
CENTERLINE
10
166015.970
20
5.480
30
-5.580
11
166015.310
21
8.300
31
-5.370
0
LINE
8
CENTERLINE
10
166015.310
20
8.300
30
-5.370
11
166007.890
21
18.290
31
-4.980
0
LINE
8
CENTERLINE
10
166007.890
20
18.290
30
-4.980
11
166007.160
21
17.740
31
-4.980
0
LINE
8
CENTERLINE
10
166007.160
20
17.740
30
-4.980
11
166010.250
21
15.170
31
-5.150
0
LINE
8
CENTERLINE
10
166010.250
20
15.170
30
-5.150
11
166012.450
21
11.100
31
-5.290
0
LINE
8
CENTERLINE
10
166012.450
20
11.100
30
-5.290
11
166015.260
21
9.060
31
-5.410
0
LINE
8
CENTERLINE
10
166015.260
20
9.060
30
-5.410
11
166016.720
21
5.380
31
-5.480
0
LINE
8
CENTERLINE
10
166016.720
20
5.380
30
-5.480
11
166019.460
21
3.330
31
-5.660
0
LINE
8
CENTERLINE
10
166019.460
20
3.330
30
-5.660
11
166021.220
21
5.710
31
-5.590
0
LINE
8
CENTERLINE
10
166021.220
20
5.710
30
-5.590
11
166022.920
21
6.550
31
-5.560
0
LINE
8
CENTERLINE
10
166022.920
20
6.550
30
-5.560
11
166026.240
21
7.350
31
-5.490
0
LINE
8
CENTERLINE
10
166026.240
20
7.350
30
-5.490
11
166029.010
21
6.570
31
-5.560
0
LINE
8
CENTERLINE
10
166029.010
20
6.570
30
-5.560
11
166029.660
21
5.620
31
-5.650
0
LINE
8
CENTERLINE
10
166029.660
20
5.620
30
-5.650
11
166026.160
21
7.600
31
-5.610
0
LINE
8
CENTERLINE
10
166026.160
20
7.600
30
-5.610
11
166019.150
21
4.690
31
-5.560
0
LINE
8
CENTERLINE
10
166019.150
20
4.690
30
-5.560
11
166019.320
21
2.440
31
-5.700
0
LINE
8
CENTERLINE
10
166019.320
20
2.440
30
-5.700
11
166022.070
21
1.000
31
-5.210
0
LINE
8
CENTERLINE
10
166022.070
20
1.000
30
-5.210
11
166022.200
21
-0.260
31
-7.600
0
LINE
8
CENTERLINE
10
166022.200
20
-0.260
30
-7.600
11
166021.970
21
0.570
31
-9.020
0
LINE
8
CENTERLINE
10
166021.970
20
0.570
30
-9.020
11
166022.410
21
-0.450
31
-10.080
0
LINE
8
CENTERLINE
10
166022.410
20
-0.450
30
-10.080
11
166022.170
21
0.980
31
-12.390
0
LINE
8
CENTERLINE
10
166022.170
20
0.980
30
-12.390
11
166024.290
21
0.590
31
-13.730
0
LINE
8
CENTERLINE
10
166024.290
20
0.590
30
-13.730
11
166028.550
21
3.230
31
-13.640
0
LINE
8
CENTERLINE
10
166028.550
20
3.230
30
-13.640
11
166031.290
21
7.670
31
-13.640
0
LINE
8
CENTERLINE
10
166031.290
20
7.670
30
-13.640
11
166032.220
21
14.140
31
-13.620
0
LINE
8
CENTERLINE
10
166032.220
20
14.140
30
-13.620
11
166034.680
21
19.650
31
-13.610
0
LINE
8
CENTERLINE
10
166034.680
20
19.650
30
-13.610
11
166034.050
21
25.410
31
-13.580
0
LINE
8
CENTERLINE
10
166034.050
20
25.410
30
-13.580
11
166034.270
21
31.850
31
-13.100
0
LINE
8
CENTERLINE
10
166034.270
20
31.850
30
-13.100
11
166034.580
21
39.240
31
-13.070
0
LINE
8
CENTERLINE
10
166034.580
20
39.240
30
-13.070
11
166031.900
21
45.600
31
-13.460
0
LINE
8
CENTERLINE
10
166024.290
20
0.590
30
-13.730
11
166024.490
21
0.550
31
-20.580
0
LINE
8
SPLAY_SHOTS
10
166015.310
20
8.300
30
-5.370
11
166014.840
21
8.450
31
-6.670
0
LINE
8
SPLAY_SHOTS
10
166015.310
20
8.300
30
-5.370
11
166014.250
21
8.060
31
-5.440
0
LINE
8
SPLAY_SHOTS
10
166015.310
20
8.300
30
-5.370
11
166014.560
21
8.440
31
-4.830
0
LINE
8
SPLAY_SHOTS
10
166031.900
20
45.600
30
-13.460
11
166030.640
21
46.540
31
-14.520
0
LINE
8
SPLAY_SHOTS
10
166031.900
20
45.600
30
-13.460
11
166030.360
21
47.710
31
-14.520
0
LINE
8
SPLAY_SHOTS
10
166031.900
20
45.600
30
-13.460
11
166029.970
21
49.140
31
-14.590
0
LINE
8
SPLAY_SHOTS
10
166031.900
20
45.600
30
-13.460
11
166029.160
21
51.340
31
-14.570
0
LINE
8
SPLAY_SHOTS
10
166031.900
20
45.600
30
-13.460
11
166031.320
21
46.100
31
-12.900
0
LINE
8
SPLAY_SHOTS
10
166031.900
20
45.600
30
-13.460
11
166031.200
21
46.690
31
-12.960
0
LINE
8
SPLAY_SHOTS
10
166031.900
20
45.600
30
-13.460
11
166030.830
21
48.220
31
-12.930
0
LINE
8
SPLAY_SHOTS
10
166031.900
20
45.600
30
-13.460
11
166030.180
21
51.180
31
-13.650
0
LINE
8
SPLAY_SHOTS
10
166031.900
20
45.600
30
-13.460
11
166029.830
21
52.130
31
-13.620
0
LINE
8
SPLAY_SHOTS
10
166031.900
20
45.600
30
-13.460
11
166030.890
21
45.510
31
-13.460
0
LINE
8
SPLAY_SHOTS
10
166031.900
20
45.600
30
-13.460
11
166030.820
21
45.990
31
-13.410
0
LINE
8
SPLAY_SHOTS
10
166031.900
20
45.600
30
-13.460
11
166030.530
21
47.140
31
-13.410
0
LINE
8
SPLAY_SHOTS
10
166031.900
20
45.600
30
-13.460
11
166030.190
21
48.410
31
-13.360
0
LINE
8
SPLAY_SHOTS
10
166031.900
20
45.600
30
-13.460
11
166029.370
21
50.490
31
-13.520
0
LINE
8
SPLAY_SHOTS
10
166031.900
20
45.600
30
-13.460
11
166029.380
21
52.030
31
-14.650
0
LINE
8
SPLAY_SHOTS
10
166031.900
20
45.600
30
-13.460
11
166029.430
21
51.590
31
-13.130
0
LINE
8
SPLAY_SHOTS
10
166034.050
20
25.410
30
-13.580
11
166034.640
21
25.570
31
-14.740
0
LINE
8
SPLAY_SHOTS
10
166034.050
20
25.410
30
-13.580
11
166034.990
21
25.500
31
-13.530
0
LINE
8
SPLAY_SHOTS
10
166034.050
20
25.410
30
-13.580
11
166034.500
21
25.640
31
-13.090
0
LINE
8
SPLAY_SHOTS
10
166034.680
20
19.650
30
-13.610
11
166034.060
21
20.120
31
-14.690
0
LINE
8
SPLAY_SHOTS
10
166034.680
20
19.650
30
-13.610
11
166034.180
21
19.980
31
-13.080
0
LINE
8
SPLAY_SHOTS
10
166034.680
20
19.650
30
-13.610
11
166033.700
21
19.940
31
-13.500
0
LINE
8
SPLAY_SHOTS
10
166032.220
20
14.140
30
-13.620
11
166032.690
21
13.940
31
-14.840
0
LINE
8
SPLAY_SHOTS
10
166032.220
20
14.140
30
-13.620
11
166033.160
21
13.950
31
-13.640
0
LINE
8
SPLAY_SHOTS
10
166032.220
20
14.140
30
-13.620
11
166032.750
21
14.160
31
-13.060
0
LINE
8
SPLAY_SHOTS
10
166031.290
20
7.670
30
-13.640
11
166030.820
21
8.110
31
-14.830
0
LINE
8
SPLAY_SHOTS
10
166031.290
20
7.670
30
-13.640
11
166030.360
21
8.030
31
-13.560
0
LINE
8
SPLAY_SHOTS
10
166031.290
20
7.670
30
-13.640
11
166030.830
21
7.990
31
-13.120
0
LINE
8
SPLAY_SHOTS
10
166028.550
20
3.230
30
-13.640
11
166028.430
21
3.530
31
-14.880
0
LINE
8
SPLAY_SHOTS
10
166028.550
20
3.230
30
-13.640
11
166027.960
21
4.010
31
-14.780
0
LINE
8
SPLAY_SHOTS
10
166028.550
20
3.230
30
-13.640
11
166028.170
21
3.560
31
-13.110
0
LINE
8
SPLAY_SHOTS
10
166028.550
20
3.230
30
-13.640
11
166027.810
21
3.860
31
-13.460
0
LINE
8
SPLAY_SHOTS
10
166024.290
20
0.590
30
-13.730
11
166024.080
21
0.930
31
-14.960
0
LINE
8
SPLAY_SHOTS
10
166024.290
20
0.590
30
-13.730
11
166023.900
21
1.460
31
-13.490
0
LINE
8
SPLAY_SHOTS
10
166024.290
20
0.590
30
-13.730
11
166024.060
21
1.000
31
-13.090
0
LINE
8
SPLAY_SHOTS
10
166024.290
20
0.590
30
-13.730
11
166025.640
21
0.930
31
-20.650
0
LINE
8
SPLAY_SHOTS
10
166024.290
20
0.590
30
-13.730
11
166024.980
21
1.120
31
-15.700
0
LINE
8
SPLAY_SHOTS
10
166024.290
20
0.590
30
-13.730
11
166025.350
21
1.060
31
-14.310
0
LINE
8
SPLAY_SHOTS
10
166024.290
20
0.590
30
-13.730
11
166026.210
21
-0.040
31
-14.110
0
LINE
8
SPLAY_SHOTS
10
166024.290
20
0.590
30
-13.730
11
166025.880
21
0.270
31
-20.590
0
LINE
8
SPLAY_SHOTS
10
166022.170
20
0.980
30
-12.390
11
166023.350
21
1.490
31
-12.260
0
LINE
8
SPLAY_SHOTS
10
166022.170
20
0.980
30
-12.390
11
166022.840
21
-0.480
31
-12.360
0
LINE
8
SPLAY_SHOTS
10
166022.410
20
-0.450
30
-10.080
11
166022.040
21
0.570
31
-10.010
0
LINE
8
SPLAY_SHOTS
10
166022.410
20
-0.450
30
-10.080
11
166023.220
21
1.340
31
-10.080
0
LINE
8
SPLAY_SHOTS
10
166022.410
20
-0.450
30
-10.080
11
166023.860
21
0.920
31
-9.990
0
LINE
8
SPLAY_SHOTS
10
166022.410
20
-0.450
30
-10.080
11
166023.540
21
-0.510
31
-10.070
0
LINE
8
SPLAY_SHOTS
10
166021.970
20
0.570
30
-9.020
11
166023.740
21
1.050
31
-8.880
0
LINE
8
SPLAY_SHOTS
10
166021.970
20
0.570
30
-9.020
11
166022.810
21
1.440
31
-9.060
0
LINE
8
SPLAY_SHOTS
10
166021.970
20
0.570
30
-9.020
11
166022.690
21
-0.590
31
-8.940
0
LINE
8
SPLAY_SHOTS
10
166022.200
20
-0.260
30
-7.600
11
166022.270
21
1.150
31
-7.770
0
LINE
8
SPLAY_SHOTS
10
166022.200
20
-0.260
30
-7.600
11
166023.590
21
1.180
31
-7.520
0
LINE
8
SPLAY_SHOTS
10
166022.200
20
-0.260
30
-7.600
11
166023.950
21
0.080
31
-7.600
0
LINE
8
SPLAY_SHOTS
10
166022.070
20
1.000
30
-5.210
11
166023.680
21
1.100
31
-5.240
0
LINE
8
SPLAY_SHOTS
10
166022.070
20
1.000
30
-5.210
11
166023.840
21
-0.100
31
-5.460
0
LINE
8
SPLAY_SHOTS
10
166022.070
20
1.000
30
-5.210
11
166022.000
21
1.020
31
-7.090
0
LINE
8
SPLAY_SHOTS
10
166029.660
20
5.620
30
-5.650
11
166029.490
21
6.090
31
-6.730
0
LINE
8
SPLAY_SHOTS
10
166029.660
20
5.620
30
-5.650
11
166029.740
21
6.210
31
-5.490
0
LINE
8
SPLAY_SHOTS
10
166029.660
20
5.620
30
-5.650
11
166029.240
21
5.310
31
-5.630
0
LINE
8
SPLAY_SHOTS
10
166029.660
20
5.620
30
-5.650
11
166029.400
21
5.750
31
-4.960
0
LINE
8
SPLAY_SHOTS
10
166026.240
20
7.350
30
-5.490
11
166026.730
21
6.630
31
-6.740
0
LINE
8
SPLAY_SHOTS
10
166026.240
20
7.350
30
-5.490
11
166026.370
21
6.340
31
-5.400
0
LINE
8
SPLAY_SHOTS
10
166026.240
20
7.350
30
-5.490
11
166026.390
21
6.830
31
-5.000
0
LINE
8
SPLAY_SHOTS
10
166022.920
20
6.550
30
-5.560
11
166023.590
21
6.200
31
-6.780
0
LINE
8
SPLAY_SHOTS
10
166022.920
20
6.550
30
-5.560
11
166023.510
21
5.770
31
-5.530
0
LINE
8
SPLAY_SHOTS
10
166022.920
20
6.550
30
-5.560
11
166023.380
21
6.270
31
-5.040
0
LINE
8
SPLAY_SHOTS
10
166021.220
20
5.710
30
-5.590
11
166021.960
21
5.430
31
-6.820
0
LINE
8
SPLAY_SHOTS
10
166021.220
20
5.710
30
-5.590
11
166021.550
21
5.310
31
-5.040
0
LINE
8
SPLAY_SHOTS
10
166021.220
20
5.710
30
-5.590
11
166021.870
21
4.960
31
-5.460
0
LINE
8
SPLAY_SHOTS
10
166019.460
20
3.330
30
-5.660
11
166019.170
21
3.760
31
-6.830
0
LINE
8
SPLAY_SHOTS
10
166019.460
20
3.330
30
-5.660
11
166018.880
21
4.140
31
-5.570
0
LINE
8
SPLAY_SHOTS
10
166019.460
20
3.330
30
-5.660
11
166019.270
21
3.840
31
-5.000
0
LINE
8
SPLAY_SHOTS
10
166010.250
20
15.170
30
-5.150
11
166010.000
21
14.690
31
-6.470
0
LINE
8
SPLAY_SHOTS
10
166010.250
20
15.170
30
-5.150
11
166009.490
21
14.550
31
-5.060
0
LINE
8
SPLAY_SHOTS
10
166010.250
20
15.170
30
-5.150
11
166010.030
21
14.720
31
-4.590
0
LINE
8
SPLAY_SHOTS
10
166007.160
20
17.740
30
-4.980
11
166006.580
21
17.660
31
-6.330
0
LINE
8
SPLAY_SHOTS
10
166007.160
20
17.740
30
-4.980
11
166006.700
21
17.620
31
-5.010
0
LINE
8
SPLAY_SHOTS
10
166007.160
20
17.740
30
-4.980
11
166006.780
21
17.510
31
-4.460
0
LINE
8
SPLAY_SHOTS
10
166015.310
20
8.300
30
-5.370
11
166011.290
21
13.780
31
-5.140
0
LINE
8
SPLAY_SHOTS
10
166015.310
20
8.300
30
-5.370
11
166015.330
21
8.530
31
-6.570
0
LINE
8
SPLAY_SHOTS
10
166015.310
20
8.300
30
-5.370
11
166015.940
21
9.090
31
-5.240
0
LINE
8
SPLAY_SHOTS
10
166015.310
20
8.300
30
-5.370
11
166015.370
21
8.930
31
-4.670
0
LINE
8
SPLAY_SHOTS
10
166015.970
20
5.480
30
-5.580
11
166015.970
21
5.760
31
-6.900
0
LINE
8
SPLAY_SHOTS
10
166015.970
20
5.480
30
-5.580
11
166016.560
21
6.280
31
-5.550
0
LINE
8
SPLAY_SHOTS
10
166015.970
20
5.480
30
-5.580
11
166016.100
21
6.060
31
-5.070
0
LINE
8
SPLAY_SHOTS
10
166017.580
20
3.190
30
-5.560
11
166017.390
21
3.290
31
-6.900
0
LINE
8
SPLAY_SHOTS
10
166017.580
20
3.190
30
-5.560
11
166018.000
21
4.060
31
-5.520
0
LINE
8
SPLAY_SHOTS
10
166017.580
20
3.190
30
-5.560
11
166017.610
21
3.740
31
-5.030
0
LINE
8
SPLAY_SHOTS
10
166017.580
20
3.190
30
-5.560
11
166017.500
21
3.600
31
-5.070
0
LINE
8
SPLAY_SHOTS
10
166019.840
20
1.040
30
-5.600
11
166019.650
21
1.210
31
-6.900
0
LINE
8
SPLAY_SHOTS
10
166019.840
20
1.040
30
-5.600
11
166020.290
21
1.810
31
-5.550
0
LINE
8
SPLAY_SHOTS
10
166019.840
20
1.040
30
-5.600
11
166019.920
21
1.510
31
-5.030
0
LINE
8
SPLAY_SHOTS
10
166019.840
20
1.040
30
-5.600
11
166019.770
21
1.210
31
-5.180
0
LINE
8
SPLAY_SHOTS
10
166019.840
20
1.040
30
-5.600
11
166018.970
21
1.510
31
-5.550
0
LINE
8
SPLAY_SHOTS
10
166020.750
20
0.540
30
-5.660
11
166021.170
21
1.430
31
-5.640
0
LINE
8
SPLAY_SHOTS
10
166020.750
20
0.540
30
-5.660
11
166020.820
21
0.950
31
-5.100
0
LINE
8
SPLAY_SHOTS
10
166020.750
20
0.540
30
-5.660
11
166020.770
21
0.560
31
-6.990
0
LINE
8
SPLAY_SHOTS
10
166021.580
20
0.030
30
-2.230
11
166023.100
21
-0.680
31
-2.000
0
LINE
8
SPLAY_SHOTS
10
166021.580
20
0.030
30
-2.230
11
166022.640
21
-0.530
31
-2.110
0
LINE
8
SPLAY_SHOTS
10
166021.580
20
0.030
30
-2.230
11
166023.500
21
0.600
31
-2.210
0
LINE
8
SPLAY_SHOTS
10
166021.580
20
0.030
30
-2.230
11
166022.310
21
1.270
31
-2.140
0
LINE
8
SPLAY_SHOTS
10
166021.580
20
0.030
30
-2.230
11
166020.530
21
0.310
31
-3.950
0
LINE
8
SPLAY_SHOTS
10
166021.580
20
0.030
30
-2.230
11
166020.590
21
0.280
31
-3.850
0
LINE
8
SPLAY_SHOTS
10
166021.580
20
0.030
30
-2.230
11
166021.640
21
0.180
31
-2.240
0
LINE
8
SPLAY_SHOTS
10
166021.580
20
0.030
30
-2.230
11
166020.180
21
1.270
31
-2.260
0
LINE
8
SPLAY_SHOTS
10
166021.580
20
0.030
30
-2.230
11
166020.670
21
0.030
31
-2.180
0
LINE
8
SPLAY_SHOTS
10
166020.760
20
0.410
30
-0.790
11
166022.500
21
1.380
31
-0.780
0
LINE
8
SPLAY_SHOTS
10
166020.760
20
0.410
30
-0.790
11
166021.610
21
2.040
31
-0.740
0
LINE
8
SPLAY_SHOTS
10
166020.760
20
0.410
30
-0.790
11
166020.810
21
1.680
31
-0.900
0
LINE
8
SPLAY_SHOTS
10
166021.440
20
0.000
30
0.000
11
166022.540
21
1.470
31
-0.160
0
LINE
8
SPLAY_SHOTS
10
166021.440
20
0.000
30
0.000
11
166021.380
21
1.970
31
-0.170
0
LINE
8
SPLAY_SHOTS
10
166021.440
20
0.000
30
0.000
11
166020.580
21
1.010
31
0.010
0
LINE
8
SPLAY_SHOTS
10
166021.440
20
0.000
30
0.000
11
166021.440
21
-0.330
31
-0.660
0
LINE
8
SPLAY_SHOTS
10
166021.440
20
0.000
30
0.000
11
166021.490
21
-0.320
31
-0.690
0
LINE
8
BBOX
10
166006.580
20
-0.680
30
-20.650
11
166034.990
21
-0.680
31
-20.650
0
LINE
8
BBOX
10
166006.580
20
-0.680
30
-20.650
11
166006.580
21
52.130
31
-20.650
0
LINE
8
BBOX
10
166006.580
20
-0.680
30
-20.650
11
166006.580
21
-0.680
31
0.010
0
LINE
8
BBOX
10
166034.990
20
52.130
30
0.010
11
166006.580
21
52.130
31
0.010
0
LINE
8
BBOX
10
166034.990
20
52.130
30
0.010
11
166034.990
21
-0.680
31
0.010
0
LINE
8
BBOX
10
166034.990
20
52.130
30
0.010
11
166034.990
21
52.130
31
-20.650
0
LINE
8
BBOX
10
166006.580
20
-0.680
30
0.010
11
166034.990
21
-0.680
31
0.010
0
LINE
8
BBOX
10
166006.580
20
-0.680
30
0.010
11
166006.580
21
52.130
31
0.010
0
LINE
8
BBOX
10
166034.990
20
-0.680
30
-20.650
11
166034.990
21
-0.680
31
0.010
0
LINE
8
BBOX
10
166034.990
20
52.130
30
-20.650
11
166006.580
21
52.130
31
-20.650
0
LINE
8
BBOX
10
166034.990
20
52.130
30
-20.650
11
166034.990
21
-0.680
31
-20.650
0
LINE
8
BBOX
10
166006.580
20
52.130
30
0.010
11
166006.580
21
52.130
31
-20.650
0
ENDSEC
0
EOF
